<svg width="171" height="24" viewBox="0 0 171 24" fill="none" xmlns="http://www.w3.org/2000/svg">
<path d="M170.377 22.88C170.377 23.168 170.153 23.424 169.609 23.424H167.625C167.081 23.424 166.569 23.264 166.089 22.848C165.481 22.304 164.649 21.248 161.545 16.992C158.025 12.224 157.865 12.16 157.481 12.16C157.161 12.16 156.841 12.48 156.617 12.672L154.985 14.208C154.697 14.464 154.601 14.656 154.601 14.944C154.601 15.168 154.601 18.272 154.601 18.272C154.601 20.512 154.761 21.056 155.017 21.504C155.209 21.824 155.529 22.048 155.977 22.304C156.201 22.432 156.489 22.592 156.489 22.912C156.489 23.296 156.137 23.424 155.593 23.424H151.145C150.601 23.424 150.249 23.296 150.249 22.912C150.249 22.592 150.537 22.432 150.793 22.304C151.209 22.08 151.497 21.824 151.721 21.504C152.009 21.056 152.137 20.512 152.137 18.272V5.37601C152.137 2.84801 152.009 2.30401 151.369 1.88801C150.889 1.56801 150.409 1.50401 150.409 1.08801C150.441 0.704008 150.729 0.576008 151.209 0.576008H155.529C156.009 0.576008 156.329 0.704008 156.361 1.08801C156.361 1.50401 155.881 1.56801 155.401 1.88801C154.729 2.30401 154.601 2.84801 154.601 5.37601V12.576C154.601 12.64 154.633 12.704 154.697 12.704C154.761 12.704 154.793 12.672 154.921 12.544C157.065 10.56 161.001 6.78401 162.505 5.31201C163.881 4.00001 164.617 3.20001 164.617 2.56001C164.617 1.63201 163.625 1.69601 163.625 1.12001C163.625 0.704008 164.009 0.576008 164.553 0.576008H169.481C169.993 0.576008 170.185 0.768009 170.185 1.08801C170.185 1.53601 169.577 1.63201 169.065 1.88801C167.465 2.68801 165.929 3.87201 163.945 5.79201C163.305 6.40001 161.001 8.54401 158.953 10.496C158.857 10.592 158.825 10.656 158.825 10.72C158.825 10.816 158.921 10.912 159.017 10.912C159.145 10.912 159.209 10.816 159.433 10.816C160.297 10.816 161.065 12.192 163.881 16C167.625 21.12 168.777 22.048 169.705 22.336C170.217 22.496 170.377 22.656 170.377 22.88Z" fill="black"/>
<path d="M146.758 22.304C147.014 22.432 147.27 22.592 147.27 22.912C147.27 23.296 146.918 23.424 146.374 23.424H141.926C141.382 23.424 141.03 23.296 141.03 22.912C141.03 22.592 141.254 22.464 141.574 22.304C141.958 22.112 142.278 21.824 142.502 21.504C142.79 21.056 142.918 20.512 142.918 18.272V5.40801C142.918 2.84801 142.79 2.30401 142.15 1.88801C141.638 1.56801 141.19 1.50401 141.19 1.08801C141.19 0.704008 141.478 0.576008 141.99 0.576008H146.31C146.79 0.576008 147.142 0.704008 147.142 1.08801C147.142 1.50401 146.662 1.56801 146.182 1.88801C145.51 2.30401 145.382 2.84801 145.382 5.40801V18.272C145.382 20.512 145.542 21.056 145.798 21.504C146.022 21.824 146.278 22.048 146.758 22.304Z" fill="black"/>
<path d="M138.676 16.864C138.676 19.616 136.852 23.424 128.852 23.424H122.612C122.1 23.424 121.78 23.296 121.78 22.88C121.78 22.592 122.004 22.496 122.292 22.304C122.644 22.08 122.964 21.792 123.124 21.504C123.412 21.024 123.54 20.48 123.54 18.24V5.37601C123.54 2.94401 123.54 2.36801 122.772 1.92001C122.292 1.66401 121.812 1.56801 121.812 1.12001C121.812 0.768009 122.1 0.576008 122.58 0.576008H128.82C131.668 0.576008 134.132 0.576008 136.02 2.04801C137.268 3.00801 137.78 4.35201 137.78 5.63201C137.78 8.83201 135.124 10.56 132.884 10.912C132.724 10.944 132.628 10.976 132.628 11.104C132.628 11.2 132.724 11.264 132.852 11.264C136.148 11.552 138.676 13.632 138.676 16.864ZM135.956 16.832C135.956 13.184 133.3 11.936 128.98 11.936C128.02 11.936 126.58 11.968 126.42 11.968C126.132 11.968 126.004 12.16 126.004 12.384C126.004 12.384 126.004 12.608 126.004 18.176C126.004 20.896 126.068 21.312 126.324 21.664C126.612 22.048 127.124 22.08 128.148 22.08H129.076C131.828 22.08 135.956 21.472 135.956 16.832ZM126.004 10.112C126.004 10.464 126.228 10.624 126.58 10.624H128.564C132.084 10.624 135.092 9.56801 135.092 5.95201C135.092 2.08001 131.444 1.85601 128.788 1.85601C128.372 1.85601 127.028 1.88801 126.644 1.88801C126.164 1.88801 126.004 2.08001 126.004 2.56001C126.004 2.56001 126.004 3.10401 126.004 10.112Z" fill="black"/>
<path d="M106.163 14.272H113.971C114.163 14.272 114.227 14.176 114.227 14.08C114.227 14.048 114.227 14.016 114.163 13.856L110.419 4.16001C110.355 4.00001 110.355 3.96801 110.291 3.96801C110.227 3.96801 110.195 4.00001 110.131 4.16001L105.971 13.888C105.939 13.952 105.907 14.016 105.907 14.08C105.907 14.208 106.003 14.272 106.163 14.272ZM121.171 22.4C121.427 22.528 121.619 22.656 121.619 22.944C121.619 23.232 121.363 23.424 120.787 23.424H116.243C115.731 23.424 115.539 23.2 115.539 22.944C115.539 22.656 115.763 22.528 116.019 22.4C116.467 22.176 116.851 21.92 116.851 21.344C116.851 20.928 116.659 20.224 116.083 18.784L114.931 15.872C114.867 15.68 114.739 15.584 114.419 15.584H105.523C105.299 15.584 105.203 15.68 105.139 15.84C104.147 18.144 103.475 19.808 103.475 20.864C103.475 21.632 103.731 22.048 104.499 22.4C104.787 22.528 104.915 22.656 104.915 22.912C104.915 23.264 104.627 23.424 104.115 23.424H99.987C99.379 23.424 99.123 23.296 99.123 22.976C99.123 22.592 99.411 22.464 99.763 22.24C100.339 21.856 100.691 21.536 101.075 20.96C101.491 20.352 101.875 19.648 102.227 18.848C103.027 17.056 110.163 0.992008 110.323 0.576008C110.387 0.416008 110.515 0.320007 110.675 0.320007H111.347C111.571 0.320007 111.667 0.384008 111.731 0.576008C111.859 0.960009 118.387 18.08 118.707 18.848C119.379 20.416 119.763 21.248 120.275 21.824C120.595 22.144 120.979 22.304 121.171 22.4Z" fill="black"/>
<path d="M101.579 5.21601C101.579 5.95201 101.323 6.20801 100.907 6.20801C100.587 6.20801 100.331 6.11201 100.075 5.44001C99.6268 4.35201 99.4987 3.45601 98.3787 2.68801C97.3227 1.95201 95.9147 1.95201 94.2507 1.95201H94.0587C93.8667 1.95201 93.7708 2.04801 93.7708 2.20801C93.7708 2.20801 93.7708 2.40001 93.7708 18.176C93.7708 20.384 94.0268 21.12 94.2828 21.6C94.5068 21.984 94.9868 22.208 95.2108 22.336C95.5948 22.496 95.6907 22.72 95.6907 22.912C95.6907 23.296 95.3388 23.424 94.9548 23.424H90.1868C89.7708 23.424 89.4507 23.296 89.4507 22.912C89.4507 22.72 89.5787 22.496 89.9307 22.336C90.1227 22.208 90.6028 21.984 90.8588 21.6C91.1148 21.12 91.3387 20.384 91.3387 18.176C91.3387 2.40001 91.3387 2.20801 91.3387 2.20801C91.3387 2.04801 91.2428 1.95201 91.0828 1.95201H90.8588C89.1308 1.95201 87.8827 1.95201 86.7947 2.68801C85.6747 3.45601 85.5467 4.35201 85.1307 5.44001C84.8747 6.11201 84.5868 6.20801 84.2988 6.20801C83.8188 6.20801 83.5947 5.95201 83.5947 5.21601C83.6267 4.06401 83.6908 2.14401 83.7548 1.18401C83.7868 0.544008 84.2988 0.320007 84.8748 0.320007C85.6748 0.320007 87.0827 0.576008 90.1547 0.576008H95.0187C98.1227 0.576008 99.4987 0.320007 100.331 0.320007C100.907 0.320007 101.419 0.544008 101.451 1.18401C101.515 2.14401 101.547 4.06401 101.579 5.21601Z" fill="black"/>
<path d="M80.8832 22.304C81.1392 22.432 81.3953 22.592 81.3953 22.912C81.3953 23.296 81.0433 23.424 80.4993 23.424H76.0513C75.5073 23.424 75.1553 23.296 75.1553 22.912C75.1553 22.592 75.3792 22.464 75.6992 22.304C76.0832 22.112 76.4033 21.824 76.6273 21.504C76.9153 21.056 77.0433 20.512 77.0433 18.272V5.40801C77.0433 2.84801 76.9153 2.30401 76.2753 1.88801C75.7633 1.56801 75.3152 1.50401 75.3152 1.08801C75.3152 0.704008 75.6032 0.576008 76.1152 0.576008H80.4352C80.9152 0.576008 81.2673 0.704008 81.2673 1.08801C81.2673 1.50401 80.7873 1.56801 80.3073 1.88801C79.6353 2.30401 79.5073 2.84801 79.5073 5.40801V18.272C79.5073 20.512 79.6672 21.056 79.9232 21.504C80.1472 21.824 80.4032 22.048 80.8832 22.304Z" fill="black"/>
<path d="M72.4395 22.88C72.4395 23.168 72.2155 23.424 71.6715 23.424H69.6875C69.1435 23.424 68.6315 23.264 68.1515 22.848C67.5435 22.304 66.7115 21.248 63.6075 16.992C60.0875 12.224 59.9275 12.16 59.5435 12.16C59.2235 12.16 58.9035 12.48 58.6795 12.672L57.0475 14.208C56.7595 14.464 56.6635 14.656 56.6635 14.944C56.6635 15.168 56.6635 18.272 56.6635 18.272C56.6635 20.512 56.8235 21.056 57.0795 21.504C57.2715 21.824 57.5915 22.048 58.0395 22.304C58.2635 22.432 58.5515 22.592 58.5515 22.912C58.5515 23.296 58.1995 23.424 57.6555 23.424H53.2075C52.6635 23.424 52.3115 23.296 52.3115 22.912C52.3115 22.592 52.5995 22.432 52.8555 22.304C53.2715 22.08 53.5595 21.824 53.7835 21.504C54.0715 21.056 54.1995 20.512 54.1995 18.272V5.37601C54.1995 2.84801 54.0715 2.30401 53.4315 1.88801C52.9515 1.56801 52.4715 1.50401 52.4715 1.08801C52.5035 0.704008 52.7915 0.576008 53.2715 0.576008H57.5915C58.0715 0.576008 58.3915 0.704008 58.4235 1.08801C58.4235 1.50401 57.9435 1.56801 57.4635 1.88801C56.7915 2.30401 56.6635 2.84801 56.6635 5.37601V12.576C56.6635 12.64 56.6955 12.704 56.7595 12.704C56.8235 12.704 56.8555 12.672 56.9835 12.544C59.1275 10.56 63.0635 6.78401 64.5675 5.31201C65.9435 4.00001 66.6795 3.20001 66.6795 2.56001C66.6795 1.63201 65.6875 1.69601 65.6875 1.12001C65.6875 0.704008 66.0715 0.576008 66.6155 0.576008H71.5435C72.0555 0.576008 72.2475 0.768009 72.2475 1.08801C72.2475 1.53601 71.6395 1.63201 71.1275 1.88801C69.5275 2.68801 67.9915 3.87201 66.0075 5.79201C65.3675 6.40001 63.0635 8.54401 61.0155 10.496C60.9195 10.592 60.8875 10.656 60.8875 10.72C60.8875 10.816 60.9835 10.912 61.0795 10.912C61.2075 10.912 61.2715 10.816 61.4955 10.816C62.3595 10.816 63.1275 12.192 65.9435 16C69.6875 21.12 70.8395 22.048 71.7675 22.336C72.2795 22.496 72.4395 22.656 72.4395 22.88Z" fill="black"/>
<path d="M40.2562 19.472C40.6082 19.472 40.9603 19.632 40.9603 20.208C40.9603 20.56 40.8642 20.976 40.6722 21.616C40.0642 23.536 40.2243 23.68 38.4323 23.68C37.1843 23.68 36.1602 23.424 30.1522 23.424H23.1763C22.6323 23.424 22.2803 23.296 22.2803 22.912C22.2803 22.624 22.5042 22.528 22.8242 22.336C23.2402 22.08 23.5283 21.824 23.7523 21.504C24.0403 21.056 24.1683 20.512 24.1683 18.272V5.37601C24.1683 2.81601 24.0403 2.27201 23.4003 1.85601C22.9203 1.53601 22.4402 1.47201 22.4402 1.05601C22.4722 0.704008 22.7602 0.576008 23.2402 0.576008H27.5602C28.0722 0.576008 28.3923 0.704008 28.3923 1.05601C28.3923 1.47201 27.9123 1.53601 27.4323 1.85601C26.7603 2.27201 26.6323 2.81601 26.6323 5.37601V19.392C26.6323 20.832 26.6643 21.472 27.0803 21.76C27.4963 22.048 28.2963 22.0993 29.2242 22.144C30.1522 22.1887 37.5704 22.144 39.2003 20.336C39.2003 20.336 39.8402 19.472 40.2562 19.472Z" fill="black"/>
<path d="M7.66302 14.272H15.471C15.663 14.272 15.727 14.176 15.727 14.08C15.727 14.048 15.727 14.016 15.663 13.856L11.919 4.16001C11.855 4.00001 11.855 3.96801 11.791 3.96801C11.727 3.96801 11.695 4.00001 11.631 4.16001L7.47101 13.888C7.43901 13.952 7.40698 14.016 7.40698 14.08C7.40698 14.208 7.50303 14.272 7.66302 14.272ZM22.671 22.4C22.927 22.528 23.119 22.656 23.119 22.944C23.119 23.232 22.863 23.424 22.287 23.424H17.743C17.231 23.424 17.039 23.2 17.039 22.944C17.039 22.656 17.263 22.528 17.519 22.4C17.967 22.176 18.351 21.92 18.351 21.344C18.351 20.928 18.159 20.224 17.583 18.784L16.431 15.872C16.367 15.68 16.239 15.584 15.919 15.584H7.02301C6.79901 15.584 6.70298 15.68 6.63898 15.84C5.64698 18.144 4.97498 19.808 4.97498 20.864C4.97498 21.632 5.23102 22.048 5.99902 22.4C6.28702 22.528 6.41498 22.656 6.41498 22.912C6.41498 23.264 6.12699 23.424 5.61499 23.424H1.487C0.878999 23.424 0.622986 23.296 0.622986 22.976C0.622986 22.592 0.911 22.464 1.263 22.24C1.839 21.856 2.19101 21.536 2.57501 20.96C2.99101 20.352 3.37499 19.648 3.72699 18.848C4.52699 17.056 11.663 0.992008 11.823 0.576008C11.887 0.416008 12.015 0.320007 12.175 0.320007H12.847C13.071 0.320007 13.167 0.384008 13.231 0.576008C13.359 0.960009 19.887 18.08 20.207 18.848C20.879 20.416 21.263 21.248 21.775 21.824C22.095 22.144 22.479 22.304 22.671 22.4Z" fill="black"/>
<path d="M34.1796 9.7004C34.2643 9.53101 34.4374 9.42401 34.6268 9.42401H47.0088C47.1982 9.42401 47.3713 9.53101 47.456 9.7004L47.956 10.7004C48.1222 11.0329 47.8805 11.424 47.5088 11.424H34.1268C33.7551 11.424 33.5134 11.0329 33.6796 10.7004L34.1796 9.7004Z" fill="black"/>
<path d="M46.5942 8.87122L46.3261 9.40739C46.1316 9.79651 46.4924 10.2313 46.9107 10.1118L47.5678 9.92401L47.0414 8.87123C46.9493 8.68696 46.6863 8.68696 46.5942 8.87122Z" fill="black"/>
<path d="M120.318 22.424H123.318V23.424H120.318V22.424Z" fill="black"/>
</svg>
