<svg width="16" height="16" viewBox="0 0 16 16" fill="none" xmlns="http://www.w3.org/2000/svg">
<path d="M5.06052 0.353516C4.60635 1.3578 4.35352 2.47263 4.35352 3.64651C4.35352 8.06478 7.93524 11.6465 12.3535 11.6465C13.5274 11.6465 14.6422 11.3937 15.6465 10.9395L15.2667 10.5597C14.3711 10.9376 13.3867 11.1465 12.3535 11.1465C8.21138 11.1465 4.85352 7.78864 4.85352 3.64651C4.85352 2.61333 5.06243 1.62895 5.44031 0.733302L5.06052 0.353516Z" fill="#B9B186"/>
<path d="M15.6465 10.9395C14.6422 11.3937 13.5274 11.6465 12.3535 11.6465C7.93524 11.6465 4.35352 8.06478 4.35352 3.64651C4.35352 2.47263 4.60635 1.3578 5.06052 0.353516C2.28484 1.60879 0.353516 4.40209 0.353516 7.64649C0.353516 12.0648 3.93524 15.6465 8.35352 15.6465C11.5979 15.6465 14.3912 13.7152 15.6465 10.9395Z" fill="#B9B186"/>
</svg>
