<svg xmlns="http://www.w3.org/2000/svg" width="16" height="16" viewBox="0 0 16 16" fill="none">
  <path d="M4.76756 0.353516C4.31338 1.3578 4.06055 2.47263 4.06055 3.64651C4.06055 8.06478 7.64227 11.6465 12.0605 11.6465C13.2344 11.6465 14.3492 11.3937 15.3535 10.9395L14.9738 10.5597C14.0781 10.9376 13.0937 11.1465 12.0605 11.1465C7.91841 11.1465 4.56055 7.78864 4.56055 3.64651C4.56055 2.61333 4.76946 1.62895 5.14734 0.733302L4.76756 0.353516Z" fill="black"/>
  <path d="M15.3535 10.9395C14.3492 11.3937 13.2344 11.6465 12.0605 11.6465C7.64227 11.6465 4.06055 8.06478 4.06055 3.64651C4.06055 2.47263 4.31338 1.3578 4.76756 0.353516C1.99187 1.60879 0.0605469 4.40209 0.0605469 7.64649C0.0605469 12.0648 3.64227 15.6465 8.06055 15.6465C11.3049 15.6465 14.0983 13.7152 15.3535 10.9395Z" fill="black"/>
</svg>